<?xml version="1.0" encoding="UTF-8"?>
<svg id="Layer_2" data-name="Layer 2" xmlns="http://www.w3.org/2000/svg" viewBox="0 0 875.31 155.35">
  <defs>
    <style>
      .cls-1 {
        letter-spacing: 0em;
      }

      .cls-2 {
        fill: #fff;
        font-family: InterItalic-BoldItalic, Inter;
        font-size: 120px;
        font-style: italic;
        font-variation-settings: 'opsz' 14, 'wght' 700;
        font-weight: 700;
      }

      .cls-3 {
        fill: #fefcfc;
      }

      .cls-4 {
        letter-spacing: -.01em;
      }

      .cls-5 {
        letter-spacing: -.02em;
      }

      .cls-6 {
        letter-spacing: -.01em;
      }

      .cls-7 {
        letter-spacing: -.03em;
      }

      .cls-8 {
        letter-spacing: 0em;
      }

      .cls-9 {
        letter-spacing: -.02em;
      }

      .cls-10 {
        letter-spacing: -.02em;
      }
    </style>
  </defs>
  <g id="Layer_1" data-name="Layer 1">
    <g>
      <path class="cls-3" d="M60.18,102.12c34.62,2.77,64.07,13.91,94.35,30.25,11.44,6.17,22.37,12.59,33.41,19.35l4.28,2.87c2.68,1.8,5.38.15,6.81-2.37,1.24-2.18,1.38-4.02-.11-6.23-13.57-20.05-31.33-37.32-52.09-49.9-24.28-14.71-52.1-21.56-80.42-19.48-22.76,1.67-43.12,8.09-63.62,17.6-1.24.58-2.47,1.58-2.71,2.89-.41,2.21.94,3.97,2.13,5.09,1.93,1.82,3.79,1.22,6.18.91,17.22-2.2,34.44-2.36,51.8-.97Z"/>
      <path class="cls-3" d="M103.56,26.14c-37.22-.16-70.74,13.58-93.27,43.54-.64.84-1.1,2.01-.84,2.94.68,2.56,7.75,3.89,10.8,3.57l32.8-3.37c7.07-1.96,11.82-7.54,12.86-14.93.3-2.14.35-4.3.2-6.46-.13-1.75-.93-3.73-.04-5.37.87-1.62,2.52-2.08,4.22-2.05,2.07.04,4.14.14,6.21.3,4.15.31,8.29.84,12.41,1.44,0,0,21.61,3.16,21.61,3.16,6.95,1.03,13.68,1.08,20.68.24,10.74-1.29,20.55-5.84,28.22-13.56-18.37-6.2-36.89-9.37-55.84-9.45ZM38.23,59.66c-2.06,0-3.75-1.55-3.94-3.56v-.03c-.02-.09-.02-.19-.02-.28v-.09c0-2.19,1.77-3.96,3.96-3.96,1.86,0,3.42,1.28,3.84,3t.01.02c.05.13.09.25.1.39.01.1.01.2,0,.3.01.08.01.17.01.25,0,2.19-1.77,3.96-3.96,3.96Z"/>
      <path class="cls-3" d="M62.86,28.33c14.83-3.76,29.47-6.3,44.18-7.08C124.2,20.34,140.31,12.72,151.88,0h0c-14.2.07-27.58,2.61-41.12,6.65-16.57,5.42-32.59,11.89-47.9,21.68Z"/>
      <circle class="cls-3" cx="168.92" cy="97.18" r="6.38"/>
    </g>
    <text class="cls-2" transform="translate(220 115.79)"><tspan class="cls-8" x="0" y="0">R</tspan><tspan class="cls-9" x="79.02" y="0">A</tspan><tspan class="cls-10" x="165.87" y="0">P</tspan><tspan class="cls-1" x="241.23" y="0">I</tspan><tspan class="cls-4" x="275.28" y="0">D</tspan><tspan class="cls-5" x="360.47" y="0">F</tspan><tspan class="cls-6" x="428.2" y="0">E</tspan><tspan class="cls-7" x="500.02" y="0">E</tspan><tspan x="570.53" y="0">T</tspan></text>
  </g>
</svg>